<!-- 
  SF Symbols - Apple Icon System for DA Workflow
  Using SVG equivalents of SF Symbols
  https://developer.apple.com/sf-symbols/
-->

<!-- Navigation & UI Controls -->
<svg id="sf-chevron-right" viewBox="0 0 24 24" fill="none" xmlns="http://www.w3.org/2000/svg">
  <path d="M9 6L15 12L9 18" stroke="currentColor" stroke-width="2" stroke-linecap="round" stroke-linejoin="round"/>
</svg>

<svg id="sf-chevron-left" viewBox="0 0 24 24" fill="none" xmlns="http://www.w3.org/2000/svg">
  <path d="M15 6L9 12L15 18" stroke="currentColor" stroke-width="2" stroke-linecap="round" stroke-linejoin="round"/>
</svg>

<svg id="sf-xmark" viewBox="0 0 24 24" fill="none" xmlns="http://www.w3.org/2000/svg">
  <path d="M6 6L18 18M18 6L6 18" stroke="currentColor" stroke-width="2" stroke-linecap="round"/>
</svg>

<svg id="sf-checkmark" viewBox="0 0 24 24" fill="none" xmlns="http://www.w3.org/2000/svg">
  <path d="M5 13L9 17L19 7" stroke="currentColor" stroke-width="2" stroke-linecap="round" stroke-linejoin="round"/>
</svg>

<svg id="sf-checkmark-circle" viewBox="0 0 24 24" fill="none" xmlns="http://www.w3.org/2000/svg">
  <circle cx="12" cy="12" r="10" stroke="currentColor" stroke-width="2"/>
  <path d="M8 12L11 15L16 9" stroke="currentColor" stroke-width="2" stroke-linecap="round" stroke-linejoin="round"/>
</svg>

<svg id="sf-checkmark-circle-fill" viewBox="0 0 24 24" fill="none" xmlns="http://www.w3.org/2000/svg">
  <circle cx="12" cy="12" r="10" fill="currentColor"/>
  <path d="M8 12L11 15L16 9" stroke="white" stroke-width="2" stroke-linecap="round" stroke-linejoin="round"/>
</svg>

<!-- Documents & Files -->
<svg id="sf-doc" viewBox="0 0 24 24" fill="none" xmlns="http://www.w3.org/2000/svg">
  <path d="M14 2H6C4.9 2 4 2.9 4 4V20C4 21.1 4.9 22 6 22H18C19.1 22 20 21.1 20 20V8L14 2Z" stroke="currentColor" stroke-width="2" stroke-linecap="round" stroke-linejoin="round"/>
  <path d="M14 2V8H20" stroke="currentColor" stroke-width="2" stroke-linecap="round" stroke-linejoin="round"/>
</svg>

<svg id="sf-doc-text" viewBox="0 0 24 24" fill="none" xmlns="http://www.w3.org/2000/svg">
  <path d="M14 2H6C4.9 2 4 2.9 4 4V20C4 21.1 4.9 22 6 22H18C19.1 22 20 21.1 20 20V8L14 2Z" stroke="currentColor" stroke-width="2" stroke-linecap="round" stroke-linejoin="round"/>
  <path d="M14 2V8H20M16 13H8M16 17H8M10 9H8" stroke="currentColor" stroke-width="2" stroke-linecap="round" stroke-linejoin="round"/>
</svg>

<svg id="sf-folder" viewBox="0 0 24 24" fill="none" xmlns="http://www.w3.org/2000/svg">
  <path d="M22 19C22 19.5304 21.7893 20.0391 21.4142 20.4142C21.0391 20.7893 20.5304 21 20 21H4C3.46957 21 2.96086 20.7893 2.58579 20.4142C2.21071 20.0391 2 19.5304 2 19V5C2 4.46957 2.21071 3.96086 2.58579 3.58579C2.96086 3.21071 3.46957 3 4 3H9L11 6H20C20.5304 6 21.0391 6.21071 21.4142 6.58579C21.7893 6.96086 22 7.46957 22 8V19Z" stroke="currentColor" stroke-width="2" stroke-linecap="round" stroke-linejoin="round"/>
</svg>

<svg id="sf-arrow-down-doc" viewBox="0 0 24 24" fill="none" xmlns="http://www.w3.org/2000/svg">
  <path d="M14 2H6C4.9 2 4 2.9 4 4V20C4 21.1 4.9 22 6 22H18C19.1 22 20 21.1 20 20V8L14 2Z" stroke="currentColor" stroke-width="2"/>
  <path d="M14 2V8H20M12 11V17M9 14L12 17L15 14" stroke="currentColor" stroke-width="2" stroke-linecap="round" stroke-linejoin="round"/>
</svg>

<!-- People & Communication -->
<svg id="sf-person" viewBox="0 0 24 24" fill="none" xmlns="http://www.w3.org/2000/svg">
  <circle cx="12" cy="8" r="4" stroke="currentColor" stroke-width="2"/>
  <path d="M6 20C6 16.6863 8.68629 14 12 14C15.3137 14 18 16.6863 18 20" stroke="currentColor" stroke-width="2" stroke-linecap="round"/>
</svg>

<svg id="sf-person-2" viewBox="0 0 24 24" fill="none" xmlns="http://www.w3.org/2000/svg">
  <circle cx="9" cy="7" r="3" stroke="currentColor" stroke-width="2"/>
  <circle cx="15" cy="10" r="3" stroke="currentColor" stroke-width="2"/>
  <path d="M4 18C4 15.7909 5.79086 14 8 14H10C11.1046 14 12 14.8954 12 16M13 20C13 17.7909 14.7909 16 17 16H17C19.2091 16 21 17.7909 21 20" stroke="currentColor" stroke-width="2" stroke-linecap="round"/>
</svg>

<svg id="sf-envelope" viewBox="0 0 24 24" fill="none" xmlns="http://www.w3.org/2000/svg">
  <rect x="3" y="5" width="18" height="14" rx="2" stroke="currentColor" stroke-width="2"/>
  <path d="M3 7L12 13L21 7" stroke="currentColor" stroke-width="2" stroke-linecap="round" stroke-linejoin="round"/>
</svg>

<svg id="sf-phone" viewBox="0 0 24 24" fill="none" xmlns="http://www.w3.org/2000/svg">
  <path d="M22 16.92V19.92C22 20.4696 21.5523 20.9167 21.0034 20.9199C10.0134 21.0667 1.93325 12.9866 2.07992 1.99666C2.08327 1.44769 2.53035 1 3.08 1H6.08C6.63228 1 7.08 1.44772 7.08 2V6.12C7.08 6.67228 6.63228 7.12 6.08 7.12H4.08C4.08 10.9863 6.21366 14 10.08 14V12C10.08 11.4477 10.5277 11 11.08 11H15.92C16.4723 11 16.92 11.4477 16.92 12V14C20.7863 14 22.92 10.8634 22.92 7H21.08C20.5277 7 20.08 6.55228 20.08 6V2C20.08 1.44772 20.5277 1 21.08 1H22.92C23.4723 1 23.92 1.44772 23.92 2C23.92 11.3888 16.4689 19 7.08 19" stroke="currentColor" stroke-width="2" stroke-linecap="round" stroke-linejoin="round"/>
</svg>

<!-- Building & Architecture -->
<svg id="sf-house" viewBox="0 0 24 24" fill="none" xmlns="http://www.w3.org/2000/svg">
  <path d="M3 9L12 2L21 9V20C21 20.5304 20.7893 21.0391 20.4142 21.4142C20.0391 21.7893 19.5304 22 19 22H5C4.46957 22 3.96086 21.7893 3.58579 21.4142C3.21071 21.0391 3 20.5304 3 20V9Z" stroke="currentColor" stroke-width="2" stroke-linecap="round" stroke-linejoin="round"/>
  <path d="M9 22V12H15V22" stroke="currentColor" stroke-width="2" stroke-linecap="round" stroke-linejoin="round"/>
</svg>

<svg id="sf-building-2" viewBox="0 0 24 24" fill="none" xmlns="http://www.w3.org/2000/svg">
  <rect x="4" y="2" width="16" height="20" stroke="currentColor" stroke-width="2"/>
  <path d="M8 6H10M8 10H10M8 14H10M8 18H10M14 6H16M14 10H16M14 14H16M14 18H16" stroke="currentColor" stroke-width="2" stroke-linecap="round"/>
</svg>

<svg id="sf-hammer" viewBox="0 0 24 24" fill="none" xmlns="http://www.w3.org/2000/svg">
  <path d="M14.7 6.3L19.1 10.7C19.9 11.5 19.9 12.8 19.1 13.6L11.6 21.1C10.8 21.9 9.5 21.9 8.7 21.1L4.3 16.7C3.5 15.9 3.5 14.6 4.3 13.8L11.8 6.3C12.6 5.5 13.9 5.5 14.7 6.3Z" stroke="currentColor" stroke-width="2"/>
  <path d="M14 7L6 3L3 6L7 14" stroke="currentColor" stroke-width="2" stroke-linecap="round" stroke-linejoin="round"/>
</svg>

<!-- Interface Icons -->
<svg id="sf-questionmark-circle" viewBox="0 0 24 24" fill="none" xmlns="http://www.w3.org/2000/svg">
  <circle cx="12" cy="12" r="10" stroke="currentColor" stroke-width="2"/>
  <path d="M12 16V16.01M12 13C12 11.8954 12.8954 11 14 11C15.1046 11 16 10.1046 16 9C16 7.89543 15.1046 7 14 7C12.8954 7 12 7.89543 12 9" stroke="currentColor" stroke-width="2" stroke-linecap="round"/>
</svg>

<svg id="sf-info-circle" viewBox="0 0 24 24" fill="none" xmlns="http://www.w3.org/2000/svg">
  <circle cx="12" cy="12" r="10" stroke="currentColor" stroke-width="2"/>
  <path d="M12 16V12M12 8H12.01" stroke="currentColor" stroke-width="2" stroke-linecap="round"/>
</svg>

<svg id="sf-exclamationmark-triangle" viewBox="0 0 24 24" fill="none" xmlns="http://www.w3.org/2000/svg">
  <path d="M10.29 3.86L1.82 18C1.64537 18.3024 1.55274 18.6453 1.55177 18.9945C1.55079 19.3437 1.64151 19.6871 1.81445 19.9905C1.98738 20.2939 2.23675 20.5467 2.53773 20.7239C2.83871 20.901 3.18082 20.9962 3.53 21H20.47C20.8192 20.9962 21.1613 20.901 21.4623 20.7239C21.7633 20.5467 22.0126 20.2939 22.1856 19.9905C22.3585 19.6871 22.4492 19.3437 22.4482 18.9945C22.4473 18.6453 22.3546 18.3024 22.18 18L13.71 3.86C13.5317 3.56611 13.2807 3.32312 12.9812 3.15448C12.6817 2.98585 12.3437 2.89725 12 2.89725C11.6563 2.89725 11.3183 2.98585 11.0188 3.15448C10.7193 3.32312 10.4683 3.56611 10.29 3.86V3.86Z" stroke="currentColor" stroke-width="2" stroke-linecap="round" stroke-linejoin="round"/>
  <path d="M12 9V13M12 17H12.01" stroke="currentColor" stroke-width="2" stroke-linecap="round"/>
</svg>

<svg id="sf-gearshape" viewBox="0 0 24 24" fill="none" xmlns="http://www.w3.org/2000/svg">
  <circle cx="12" cy="12" r="3" stroke="currentColor" stroke-width="2"/>
  <path d="M12 1V3M12 21V23M4.22 4.22L5.64 5.64M18.36 18.36L19.78 19.78M1 12H3M21 12H23M4.22 19.78L5.64 18.36M18.36 5.64L19.78 4.22" stroke="currentColor" stroke-width="2" stroke-linecap="round"/>
</svg>

<!-- Status & Indicators -->
<svg id="sf-circle-fill" viewBox="0 0 24 24" fill="none" xmlns="http://www.w3.org/2000/svg">
  <circle cx="12" cy="12" r="10" fill="currentColor"/>
</svg>

<svg id="sf-circle" viewBox="0 0 24 24" fill="none" xmlns="http://www.w3.org/2000/svg">
  <circle cx="12" cy="12" r="10" stroke="currentColor" stroke-width="2"/>
</svg>

<svg id="sf-star" viewBox="0 0 24 24" fill="none" xmlns="http://www.w3.org/2000/svg">
  <path d="M12 2L15.09 8.26L22 9.27L17 14.14L18.18 21.02L12 17.77L5.82 21.02L7 14.14L2 9.27L8.91 8.26L12 2Z" stroke="currentColor" stroke-width="2" stroke-linecap="round" stroke-linejoin="round"/>
</svg>

<svg id="sf-star-fill" viewBox="0 0 24 24" fill="none" xmlns="http://www.w3.org/2000/svg">
  <path d="M12 2L15.09 8.26L22 9.27L17 14.14L18.18 21.02L12 17.77L5.82 21.02L7 14.14L2 9.27L8.91 8.26L12 2Z" fill="currentColor"/>
</svg>

<!-- Time & Calendar -->
<svg id="sf-clock" viewBox="0 0 24 24" fill="none" xmlns="http://www.w3.org/2000/svg">
  <circle cx="12" cy="12" r="10" stroke="currentColor" stroke-width="2"/>
  <path d="M12 6V12L16 14" stroke="currentColor" stroke-width="2" stroke-linecap="round"/>
</svg>

<svg id="sf-calendar" viewBox="0 0 24 24" fill="none" xmlns="http://www.w3.org/2000/svg">
  <rect x="3" y="4" width="18" height="18" rx="2" stroke="currentColor" stroke-width="2"/>
  <path d="M16 2V6M8 2V6M3 10H21" stroke="currentColor" stroke-width="2" stroke-linecap="round"/>
</svg>

<!-- Actions -->
<svg id="sf-plus" viewBox="0 0 24 24" fill="none" xmlns="http://www.w3.org/2000/svg">
  <path d="M12 5V19M5 12H19" stroke="currentColor" stroke-width="2" stroke-linecap="round"/>
</svg>

<svg id="sf-plus-circle" viewBox="0 0 24 24" fill="none" xmlns="http://www.w3.org/2000/svg">
  <circle cx="12" cy="12" r="10" stroke="currentColor" stroke-width="2"/>
  <path d="M12 8V16M8 12H16" stroke="currentColor" stroke-width="2" stroke-linecap="round"/>
</svg>

<svg id="sf-minus" viewBox="0 0 24 24" fill="none" xmlns="http://www.w3.org/2000/svg">
  <path d="M5 12H19" stroke="currentColor" stroke-width="2" stroke-linecap="round"/>
</svg>

<svg id="sf-pencil" viewBox="0 0 24 24" fill="none" xmlns="http://www.w3.org/2000/svg">
  <path d="M17 3C17.2626 2.73735 17.5744 2.52901 17.9176 2.38687C18.2608 2.24473 18.6286 2.17157 19 2.17157C19.3714 2.17157 19.7392 2.24473 20.0824 2.38687C20.4256 2.52901 20.7374 2.73735 21 3C21.2626 3.26264 21.471 3.57444 21.6131 3.9176C21.7553 4.26077 21.8284 4.62856 21.8284 5C21.8284 5.37143 21.7553 5.73923 21.6131 6.08239C21.471 6.42555 21.2626 6.73735 21 7L7.5 20.5L2 22L3.5 16.5L17 3Z" stroke="currentColor" stroke-width="2" stroke-linecap="round" stroke-linejoin="round"/>
</svg>

<svg id="sf-trash" viewBox="0 0 24 24" fill="none" xmlns="http://www.w3.org/2000/svg">
  <path d="M3 6H5H21M8 6V4C8 3.46957 8.21071 2.96086 8.58579 2.58579C8.96086 2.21071 9.46957 2 10 2H14C14.5304 2 15.0391 2.21071 15.4142 2.58579C15.7893 2.96086 16 3.46957 16 4V6M19 6V20C19 20.5304 18.7893 21.0391 18.4142 21.4142C18.0391 21.7893 17.5304 22 17 22H7C6.46957 22 5.96086 21.7893 5.58579 21.4142C5.21071 21.0391 5 20.5304 5 20V6H19Z" stroke="currentColor" stroke-width="2" stroke-linecap="round" stroke-linejoin="round"/>
</svg>

<svg id="sf-square-and-arrow-up" viewBox="0 0 24 24" fill="none" xmlns="http://www.w3.org/2000/svg">
  <path d="M17 9L12 4L7 9M12 4V16M5 20H19" stroke="currentColor" stroke-width="2" stroke-linecap="round" stroke-linejoin="round"/>
</svg>

<!-- Progress & Loading -->
<svg id="sf-arrow-clockwise" viewBox="0 0 24 24" fill="none" xmlns="http://www.w3.org/2000/svg">
  <path d="M23 4V10H17M1 20V14H7M20.49 9C19.9828 7.56678 19.1209 6.28536 17.9845 5.27542C16.8482 4.26548 15.4745 3.55976 13.9917 3.22426C12.5089 2.88875 10.9652 2.93443 9.50481 3.35677C8.04437 3.77912 6.71475 4.56479 5.64 5.64L1 10M23 14L18.36 18.36C17.2853 19.4352 15.9556 20.2209 14.4952 20.6432C13.0348 21.0656 11.4911 21.1112 10.0083 20.7757C8.52547 20.4402 7.1518 19.7345 6.01547 18.7246C4.87913 17.7146 4.01717 16.4332 3.51 15" stroke="currentColor" stroke-width="2" stroke-linecap="round" stroke-linejoin="round"/>
</svg>

<!-- Weather & Environment -->
<svg id="sf-sun-max" viewBox="0 0 24 24" fill="none" xmlns="http://www.w3.org/2000/svg">
  <circle cx="12" cy="12" r="5" stroke="currentColor" stroke-width="2"/>
  <path d="M12 1V3M12 21V23M4.22 4.22L5.64 5.64M18.36 18.36L19.78 19.78M1 12H3M21 12H23M4.22 19.78L5.64 18.36M18.36 5.64L19.78 4.22" stroke="currentColor" stroke-width="2" stroke-linecap="round"/>
</svg>

<svg id="sf-moon" viewBox="0 0 24 24" fill="none" xmlns="http://www.w3.org/2000/svg">
  <path d="M21 12.79A9 9 0 1111.21 3 7 7 0 0021 12.79z" stroke="currentColor" stroke-width="2" stroke-linecap="round" stroke-linejoin="round"/>
</svg>

<!-- Money & Finance -->
<svg id="sf-dollarsign-circle" viewBox="0 0 24 24" fill="none" xmlns="http://www.w3.org/2000/svg">
  <circle cx="12" cy="12" r="10" stroke="currentColor" stroke-width="2"/>
  <path d="M12 6V18M15 9H10.5C9.67157 9 9 9.67157 9 10.5C9 11.3284 9.67157 12 10.5 12H13.5C14.3284 12 15 12.6716 15 13.5C15 14.3284 14.3284 15 13.5 15H9" stroke="currentColor" stroke-width="2" stroke-linecap="round"/>
</svg>

<svg id="sf-chart-bar" viewBox="0 0 24 24" fill="none" xmlns="http://www.w3.org/2000/svg">
  <path d="M18 20V10M12 20V4M6 20V14" stroke="currentColor" stroke-width="2" stroke-linecap="round"/>
</svg>

<!-- Link & Share -->
<svg id="sf-link" viewBox="0 0 24 24" fill="none" xmlns="http://www.w3.org/2000/svg">
  <path d="M10 13C10.4295 13.5741 10.9774 14.0491 11.6066 14.3929C12.2357 14.7367 12.9315 14.9411 13.6467 14.9923C14.3618 15.0435 15.0796 14.9403 15.7513 14.6897C16.4231 14.4392 17.0331 14.047 17.54 13.54L20.54 10.54C21.4508 9.59695 21.9548 8.33394 21.9434 7.02296C21.932 5.71198 21.4061 4.45791 20.4791 3.53087C19.5521 2.60383 18.298 2.07799 16.987 2.0666C15.676 2.0552 14.413 2.55918 13.47 3.46997L11.75 5.17997M14 11C13.5705 10.4258 13.0226 9.95078 12.3934 9.60703C11.7642 9.26327 11.0685 9.05885 10.3533 9.00763C9.63819 8.95641 8.92037 9.0596 8.24861 9.31018C7.57685 9.56077 6.96689 9.9529 6.45996 10.46L3.45996 13.46C2.54917 14.403 2.04519 15.666 2.05659 16.977C2.06798 18.288 2.59382 19.542 3.52086 20.4691C4.44791 21.3961 5.70197 21.9219 7.01295 21.9333C8.32393 21.9447 9.58694 21.4407 10.53 20.53L12.24 18.82" stroke="currentColor" stroke-width="2" stroke-linecap="round" stroke-linejoin="round"/>
</svg>

<svg id="sf-square-and-arrow-up-on-square" viewBox="0 0 24 24" fill="none" xmlns="http://www.w3.org/2000/svg">
  <rect x="8" y="8" width="13" height="13" rx="2" stroke="currentColor" stroke-width="2"/>
  <path d="M3 16V5C3 3.89543 3.89543 3 5 3H16M12 11L15 8M15 8L18 11M15 8V16" stroke="currentColor" stroke-width="2" stroke-linecap="round" stroke-linejoin="round"/>
</svg>
